<?xml version="1.0" encoding="utf-8"?>
<!-- Generator: Adobe Illustrator 23.0.3, SVG Export Plug-In . SVG Version: 6.00 Build 0)  -->
<svg version="1.1" id="Capa_1" xmlns="http://www.w3.org/2000/svg" xmlns:xlink="http://www.w3.org/1999/xlink" x="0px" y="0px"
	 viewBox="0 0 1200 1200" enable-background="new 0 0 1200 1200" xml:space="preserve">
<path fill="#2D3C53" d="M681.835,245.32c-4.183-1.713-4.02-14.029-0.596-29.481c1.379-0.671,4.055-1.728,7.444-1.489
	c4.94,0.348,9.703,3.33,11.316,6.849C704.331,230.652,687.643,247.698,681.835,245.32z M1094.608,644.875
	c-7.438,9.516-18.777,15.567-32.153,13.408c-10.886-1.911-19.535-6.753-27.225-12.871c-0.511-0.42-1.003-0.871-1.503-1.308
	c-9.787,5.781-19.682,11.344-29.62,16.813c-19.15,10.422-38.547,20.335-58.153,29.812c-10.547,5.108-21.167,10.064-31.85,14.888
	c3.231,5.575,6.126,11.325,9.088,17.041c33.228,64.125,44.81,145.744,24.005,215.512c-14.059,47.146-47.266,84.37-87.484,111.626
	c-58.079,39.36-128.204,61.166-196.1,77.128c-71.98,16.922-146.125,24.684-220.05,22.799
	c-74.351-1.896-151.741-13.508-217.64-49.899c-65.043-35.918-106.628-95.831-122.281-167.864
	c-3.041-13.992-5.168-28.181-6.396-42.447c-2.523-28.91-1.385-58.277,4.487-87.027c3.964-19.642,10.527-39.009,19.875-57.072
	c-5.515-11.411-9.805-23.359-12.896-35.506c-10.281-40.482-8.236-82.731,2.639-122.018c5.714-19.601,13.633-38.714,24.424-56.016
	c9.416-15.37,20.694-29.476,33.367-42.05c-0.063-0.329-0.149-0.643-0.211-0.973c-1.338-7.305-2.296-14.895-1.994-22.952
	c0.945-25.183,21.206-44.165,41.881-55.98c18.149-10.371,39.078-17.522,59.254-22.802c14.918-3.904,29.963-6.971,45.076-9.43
	c-6.243-4.427-12.257-9.515-17.822-15.68c-20.667-22.895-16.302-50.89,3.097-72.586c9.567-10.525,20.739-19.546,29.676-30.642
	c7.251-9.003,13.453-19.612,14.048-31.38c0.335-5.996-0.287-12.167-1.698-18.279c-5.04-21.83-19.84-41.6-38.444-53.802
	c-3.414-2.239-12.075-5.83-10.903-11.024c1.485-6.584,16.516-7.746,21.326-8.57c26.109-4.47,54.543-3.817,79.526,5.641
	c34.032,12.883,59.244,47.651,52.841,84.89c-0.907,4.758-2.399,9.452-4.512,13.866c2.635-1.693,5.233-3.308,7.734-4.926
	c7.79-5.04,15.965-10.139,21.779-17.523c15.302-19.432,6.24-52.115,1.826-73.851c-1.098-5.406-1.591-10.963-2.435-16.447
	c-0.157-1.019-0.739-10.109-1.606-10.44c29.692,11.329,60.779,21.259,79.122,49.097c4.298-3.788,8.675-7.475,13.205-10.955
	c55.116-42.339,129.588-60.759,197.664-43.612c6.842,1.715,13.582,3.744,20.225,6.028l-7.37-9.044l15.31,11.924
	c13.824,5.255,27.188,11.642,40.047,18.884L836.206,50l9.686,100.537l35.607-35.322l-22.17,44.326l91.144,12.243l-66.32,8.243
	c2.834,2.383,5.652,4.785,8.42,7.242c12.968,11.442,25.271,23.611,36.812,36.538c23.198,25.942,42.582,55.215,58.226,86.163
	c26.707,52.835,45.103,113.002,44.888,172.619c-0.117,32.471-5.991,68.602-27.213,94.402c-23.425,28.478-66.801,37.57-101.985,32.71
	c-14.999-2.072-30.242-6.218-43.914-12.762c-8.635-3.897-16.954-9.427-24.259-15.938c-3.371-2.992-6.452-6.237-9.322-9.58
	l-11.415,33.715c2.836,1.502,5.653,3.041,8.412,4.678c12.592,7.555,24.43,16.281,35.42,25.936
	c16.057,14.359,30.235,30.669,42.382,48.31c11.247-5.805,22.565-11.461,33.971-16.935c19.626-9.436,39.462-18.437,59.543-26.928
	c9.114-3.803,18.267-7.524,27.487-11.106c-1.615-3.041-2.987-6.418-3.797-10.417c-2.373-11.716,3.66-21.892,13.039-28.449
	c15.528-10.856,44.575-16.563,58.847-0.521C1108.619,602.623,1107.225,628.733,1094.608,644.875z M544.529,280.502
	c-8.856,8.519-20.577,14.594-35.203,17.035c-3.631,0.573-7.115,1.138-10.427,1.808c-7.187,1.455,4.374,66.579,6.423,74.308
	c5.357,0.595,10.709,1.236,16.051,1.965c27.368,3.678,54.547,8.999,81.286,16.341c4.948-18.269,10.011-36.48,14.984-54.686
	c6.609-23.339,13.095-46.694,19.897-69.787c6.696-23.151,13.563-46.12,20.597-68.891c10.95-9.637,27.274-14.783,41.61-10.846
	c14.837,4.075,23.924,15.052,32.059,27.255c0,0,1.493,2.826,1.493,2.826l-1.196,3.532c-8.916,26.323-17.878,52.625-26.999,78.871
	c-9.068,26.265-18.304,52.468-27.588,78.658c-4.207,11.757-8.426,23.509-12.674,35.253c6.598,3.077,13.111,6.414,19.512,10.071
	c16.75,9.57,34.645,22.87,41.872,41.483c11.011,0.632,22.149,2.469,32.917,6.17c17.83,6.103,34.362,16.584,47.612,29.992
	c4.33,4.382,8.255,9.076,11.886,13.859c3.003-8.284,6.029-16.56,9.146-24.805c10.676-28.818,21.622-57.543,33.022-86.112
	c-0.469-0.198-0.938-0.389-1.409-0.611c-12.585-5.94-19.649-17.688-19.439-31.57c0.161-5.73,1.293-11.036,3.116-16.031
	c3.868-10.597,11.458-19.887,21.518-25.124c25.545-13.298,60.469,2.447,64.493,31.908c0.604,4.42,0.368,8.675-0.467,13.032
	c-2.155,11.249-11.801,19.849-21.535,24.882c-9.368,4.844-19.332,7.022-29.866,6.8c-8.786,30.257-18.062,60.345-27.612,90.338
	c-4.452,14.313-9.14,28.545-13.826,42.777c0.77,1.173,1.539,2.355,2.311,3.48c27.883,40.662,98.74,55.638,138.532,23.996
	c38.337-30.486,34.291-95.198,27.178-138.365c-6.261-37.997-18.606-76.215-35.322-110.898
	c-14.351-29.779-32.161-57.816-53.672-82.824c-16.742-19.289-35.031-37.403-54.853-53.56l-4.67,0.58l34.668,43.237l-41.723-32.336
	v99.055l-23.015-97.927c-16.485,10.768-45.757,38.341-46.898,39.102c-1.093,0.729,26.472-33.788,35.998-52.634l-77.344-11.83
	l78.472-6.588l-17.218-21.128c-14.236-7.122-29.023-13.035-44.322-17.29c-31.589-8.942-65.232-10.361-97.413-3.221
	c-15.641,4.319-31.172,10.807-45.761,18.384c-14.682,7.538-28.551,16.538-41.313,26.785c-5.174,4.158-10.117,8.575-14.831,13.207
	c3.885,8.577,6.646,17.492,8.526,26.608C568.874,234.964,562.795,262.932,544.529,280.502z M863.293,371.909
	c0.425,2.709,1.245,4.94,2.255,6.027c0.192,0.351,0.496,0.485,0.691,0.758c0.347,0.164,0.635,0.353,0.885,0.59
	c0.206,0.262,0.819,0.349,1.148,0.602c0.204,0.106,0.363,0.244,0.59,0.351l0.811,0.25c1.984,0.818,4.867,1.284,7.83,1.423
	c6.022,0.314,12.847-0.921,18.399-3.412c1.496-0.52,2.62-1.345,3.939-1.998l1.643-1.159l0.841-0.557l0.633-0.624
	c0.394-0.416,0.973-0.782,1.284-1.204c0.292-0.425,0.614-0.827,0.992-1.214c0.377-0.391,0.424-0.821,0.723-1.211l0.399-0.602
	c0.065-0.233,0.141-0.464,0.228-0.695c0.708-1.877,0.92-4.663,0.541-7.591c-0.387-2.937-1.326-6.025-2.725-8.914
	c-2.783-5.863-7.379-10.755-13.641-13.625l-0.006,0.03c-13.554-0.594-25.112,11.769-27.038,23.755
	C863.078,365.993,862.936,369.171,863.293,371.909z M803.013,537.811c-2.095-2.658-4.221-5.144-4.884-6.003
	c-4.079-5.281-8.496-10.309-13.363-14.88c-9.759-9.165-21.226-16.347-33.893-20.751c-7.442-2.572-15.257-4.056-23.318-4.763
	c-0.915,3.339-2.173,6.464-3.566,9.382c-5.46,11.195-13.902,20.637-19.193,31.893c-6.096,12.968-5.171,27.456,7.061,36.343
	c8.588,6.239,19.518,8.83,29.629,11.443c13.249,3.424,27.279,6.106,41.301,11.011c2.648,0.909,5.264,1.909,7.879,2.913l13.693-39.13
	c1.159-3.177,2.304-6.359,3.452-9.539C808.183,544.699,805.622,541.122,803.013,537.811z M436.606,381.216l0.001-0.03
	c-16.109,0.007-32.221,0.672-48.295,1.827c0.574,2.951,1.219,5.894,1.974,8.824l2.81,10.898c42.86-7.135,86.655-7.798,129.892-3.153
	c22.622,2.443,45.158,6.318,67.322,12.222c2.177,0.573,4.346,1.189,6.514,1.808c0.523-1.971,1.052-3.941,1.572-5.913
	c0.174-0.661,0.361-1.317,0.536-1.978c-25.953-7.575-52.553-13.226-79.392-17.259C492.095,384.274,464.36,381.913,436.606,381.216z
	 M356.846,422.706c-30.555,8.126-60.768,19.304-87.893,34.71c-15.789,8.968-40.674,22.853-46.119,41.432
	c-1.087,3.692-1.063,6.971-0.046,10.421c9.529,32.324,62.242,44.379,89.758,52.711c32.881,9.957,67.077,15.494,101.4,16.741
	c71.718,2.606,150.49-11.483,213.897-46.199c12.146-6.65,24.39-14.496,34.018-24.565c5.695-5.956,12.207-14.603,10.534-23.34
	c-0.734-3.251-2.73-6.859-5.368-10.38c-4.701-5.873-11.204-11.271-18.38-16.044c0,0-6.949,18.591-6.949,18.592
	c-5.374,14.353-9.493,41.227-31.113,35.268c-5.318-1.466-9.973-4.715-14.121-8.351c-4.851-4.252-9.563-8.774-13.893-13.52
	l-4.542-4.979l1.696-6.706c3.882-15.354,7.966-30.648,12.053-45.932c-2.239-0.718-4.483-1.425-6.732-2.104
	c-20.933-6.146-42.422-10.956-64.195-14.101c-40.737-5.885-82.043-6.97-122.956-2.202c-1.048,0.122-2.33,1.463-1.348,1.842
	C385.796,411.854,367.449,419.886,356.846,422.706z M654.877,370.407l30.795-77.429L715.567,219
	c-0.03-0.051-0.061-0.108-0.091-0.157c-4.481-7.611-11.225-14.672-19.742-17.597c-8.54-2.933-18.291-0.86-25.978,3.512
	c-0.742,0.422-1.237,0.5-2.166,0.605c-4.759,23.883-9.668,47.516-14.748,70.967c-4.975,23.516-10.267,46.77-15.435,70.04
	c-5.376,23.175-10.526,46.382-16.084,69.403c-4.997,20.704-9.812,41.432-14.936,62.068c1.673,1.658,3.377,3.27,5.059,4.723
	l13.259-34.529C634.586,422.108,644.737,396.259,654.877,370.407z M430.757,287.643c2.934,12.48,16.543,24.672,25.355,32.083
	c0,0,2.871,2.414,2.933,2.466c0.303-2.463,0.724-4.931,1.406-7.38c1.823-6.522,5.152-12.874,10.21-17.984
	c13.933-14.333,33.704-12.732,50.689-20.169c4.484-1.963,8.084-4.505,11.016-7.796c6.306-6.972,9.901-16.209,11.064-26.184
	c2.248-19.981-3.737-42.146-14.431-59.412c-5.277-8.708-12.361-14.994-20.741-20.428c-2.613-1.647-5.419-3.148-8.307-4.591
	c0,0,1.089,7.582,1.09,7.588c2.483,17.283,2.855,35.565-3.725,52.042c-6.326,15.843-20.12,24.801-34.306,32.946
	C450.063,258.259,426.405,269.132,430.757,287.643z M422.871,309.352c-4.024-4.741-7.396-9.901-9.627-15.472
	c-1.218-3.041-2.108-6.387-2.508-9.927c-0.23-2.391-0.143-4.847,0.148-7.243c-0.193,1.592-3.582,4.704-4.552,6.111
	c-13.076,18.962-19.521,43.365-20.59,66.194c-0.329,7.035-0.127,14.112,0.659,21.157c16.775-0.797,33.571-1.012,50.367-0.616
	c15.246,0.144,30.485,0.799,45.685,1.954c-2.103-10.031-3.546-20.178-4.335-30.336c-0.781-10.38-0.875-20.826-0.289-31.237
	c-0.152,2.694-4.803,7.681-5.694,10.824c-1.899,6.699,1.004,19.756-9.241,17.645c-6.023-1.241-11.67-5.446-16.658-8.854
	C438.143,324.025,429.596,317.275,422.871,309.352z M313.607,345.515c8.782,9.493,22.42,16.817,31.201,21.373
	c5.085,2.638,10.346,5.071,15.689,7.395c-0.038-0.331-0.092-0.659-0.128-0.99c-3.677-33.579,3.972-69.464,21.993-98.125
	c11.274-17.93,31.788-30.855,39.581-50.698c5.151-13.117,1.498-28.644-5.642-40.365c-18.132-29.765-53.442-35.955-85.422-36.487
	c-3.806-0.063-7.628,0.229-11.454,0.401c-1.352,0.065-2.703,0.194-4.055,0.314c0.807,0.52,1.628,1.019,2.422,1.559
	c21.123,14.375,36.865,36.959,41.708,62.174c5.808,30.243-6.862,53.596-26.702,75.602c-8.991,9.973-21.03,18.746-26.106,31.533
	C302.75,329.133,306.659,338.003,313.607,345.515z M123.183,648.685c0.216,18.768,2.519,37.457,7.64,55.232
	c1.654,5.779,3.627,11.442,5.856,16.983c17.732-23.749,39.423-41.89,55.461-62.68c7.985-10.407,14.088-21.513,16.454-33.115
	c0.42-1.436,0.36-2.922,0.582-4.379c1.372-19.238-8.159-36.775-15.738-53.785c-8.084-18.145-13.999-37.711-19.4-56.82
	c-0.516-1.824-0.976-3.688-1.463-5.533c-2.85,3.541-5.596,7.157-8.214,10.857C136.674,553.912,122.638,601.418,123.183,648.685z
	 M894.462,714.273c-2.673,1.152-5.337,2.32-8.018,3.454c-8.949,3.749-17.943,7.405-27.003,10.924
	c0.398-0.154-1.215,17.539-1.719,19.277c-1.859,6.414-4.839,12.561-9.418,17.483c-7.453,8.009-18.183,11.155-28.831,8.931
	c-17.92-3.743-30.603-21.649-29.806-39.964c0.401-11.205,6.826-22.037,15.651-28.74c14.095-10.705,34.131-11.657,46.218,2.273
	c0.458,0.569,0.948,1.148,1.356,1.727l0.214,0.35c7.715-4.469,15.477-8.841,23.282-13.122c1.805-0.982,3.624-1.937,5.434-2.91
	c-10.774-15.726-23.218-30.251-37.193-43.05c-17.327-15.869-38.961-28.139-60.996-37.133c-22.141-9.037-46.166-12.917-68.06-21.972
	c-20.014-8.277-34.691-24.949-31.919-47.787c2.974-24.499,31.806-42.537,28.534-67.323c-0.893-6.767-4.836-12.754-9.336-17.886
	c-11.645-13.282-27.338-22.295-43.172-30.126c-0.914,2.226-1.827,4.452-2.741,6.678c-0.206,0.503-0.416,1.059-0.246,1.576
	c0.148,0.451,0.551,0.761,0.933,1.043c9.445,6.977,19.094,13.297,26.755,22.249c4.211,5.267,8.158,11.391,10.174,19.064
	c0.395,1.944,0.682,3.949,0.955,5.937c2.797,19.503-12.409,36.773-26.068,48.506c-9.319,8.005-19.279,14.537-29.476,20.384
	c-20.433,11.614-41.843,20.566-63.742,27.729c-93.609,30.617-195.689,31.222-288.68-2.134
	c-23.206-8.324-46.042-18.852-64.655-35.017c-12.219-10.612-22.959-25.049-22.449-41.225c0.722-22.863,22.195-38.848,39.39-50.386
	c27.922-18.735,59.341-29.453,91.643-37.903c9.718-2.542,28.832-7.401,38.547-9.121c-10.569-6.173-26.355-14.918-41.104-15.81
	c-5.162-0.312-10.292,0.798-15.345,1.901c-38.652,8.442-84.721,16.962-114.439,45.402c-15.45,14.785-16.52,34.957-11.056,54.668
	c6.535,23.572,16.023,46.149,25.085,68.824c11.675,29.213,23.085,55.987,9.139,86.714c-15.644,34.47-47.039,56.177-68.386,86.365
	c-2.149,3.038-4.16,6.172-6.096,9.356c2.004,3.371,4.106,6.679,6.354,9.881c36.89,52.697,105.578,69.067,166.877,66.278
	c109.727-4.993,200.244-61.797,267.139-146.5c18.817-23.827,35.807-49.423,49.978-76.29c4.582-8.534,8.883-17.23,12.91-26.068
	l10.789,4.419c-6.831,18.723-14.994,37.015-24.454,54.654c-9.342,17.698-20.417,34.582-31.612,50.886
	c-54.833,79.857-137.121,141.786-233.801,158.612c-31.574,5.495-63.849,8.182-95.826,4.998
	c-54.579-5.435-109.154-29.629-140.983-75.704c-4.976,12.273-8.679,25.156-11.166,38.305
	c-11.641,61.544-5.512,128.244,26.019,183.292c50.658,88.441,147.753,119.69,243.405,129.255
	c82.221,8.221,165.702,3.679,246.554-13.366c75.333-15.882,159.951-40.714,221.403-88.906
	c47.104-36.94,70.047-88.799,71.971-147.719C934.603,815.796,920.859,761.316,894.462,714.273z M803.162,743.909
	c-0.157,0.057,12.521,9.251,15.91,9.479c16.364,1.103,20.44-31.721,7.222-32.431c-6.147-0.33-12.281,2.363-16.631,6.618
	C807.894,729.306,802.177,744.259,803.162,743.909z M1084.387,606.513c-1.411-8.647-8.223-12.534-20.143-9.618
	c-5.392,1.319-24.989,8.616-22.144,16.478c3.188,8.808,13.67,15.723,21.94,18.964c12.294,4.818,18.299-5.711,20.131-16.69
	C1084.747,612.202,1084.816,609.139,1084.387,606.513z M465.864,461.666c12.924-4.326,27.119-4.812,41.241-0.869
	c17.787,4.966,35.543,17.481,44.179,34.113c1.904,3.878,3.848,8.279,3.925,14.543c0.087,3.004-0.603,6.719-1.998,9.767
	c-6.472,14.512-26.025,19.558-40.384,21.835c-13.904,2.205-27.977,3.761-42.075,3.468c-13.036-0.271-29.911-1.086-41.165-8.228
	c-8.304-5.27-11.604-15.042-10.05-24.53c1.563-9.545,6.795-18.733,12.739-26.23C441.311,474.139,452.953,465.987,465.864,461.666z
	 M529.508,508.89c0.008-0.009,0.028-0.025,0.035-0.034C529.802,508.592,529.643,508.595,529.508,508.89
	C529.508,508.889,529.508,508.89,529.508,508.89z M472.067,482.703c-10.181,2.023-19.722,6.987-27.475,13.882
	c-6.973,6.202-22.183,21.612-8.328,28.734c3.536,1.817,7.646,2.096,11.621,2.117c15.271,0.081,30.349-3.106,45.287-6.279
	c12.387-2.631,25.006-5.349,35.979-11.67c-9.417-18.192-30.57-29.247-50.991-27.63C476.111,482.019,474.077,482.304,472.067,482.703
	z M349.539,442.496c18.326-3.542,38.454,4.008,49.874,20.509c8.393,12.126,11.196,29.171-1.611,39.494
	c-12.292,10.177-29.746,11.94-45.096,11.243c-13.463-0.611-32.766-3.805-37.965-18.423c-6.595-12.969,1.493-30.067,10.658-39.655
	C332.23,448.518,340.674,444.209,349.539,442.496z M381.13,483.302c0.294-0.357,0.181-0.463,0.112-0.221
	C381.164,483.139,381.15,483.223,381.13,483.302z M352.701,464.437c-7.249,0.299-14.033,3.974-19.107,9.016
	c-1.849,1.838-11.832,14.054-8.249,17.091c1.6,1.356,3.754,2.229,6.865,2.817c13.695,2.589,29.455-0.447,42.164-5.87
	c2.941-1.255,5.535-2.839,6.52-3.939c-3.667-8.4-11.595-15.343-20.426-18.086C357.834,464.648,355.234,464.333,352.701,464.437z
	 M416.731,443.908c3.195,8.122,16.027,6.903,22.94,6.958c6.818-0.068,14.027-0.515,20.699-1.999
	c4.577-1.018,9.128-2.294,13.497-4.032l12.341-4.909c0,0-9.714-9.392-9.714-9.392c-8.718-8.43-21.705-14.604-34.065-12.942
	c-9.164,0.961-17.762,6.619-23.01,14.07C416.865,435.287,415.111,439.789,416.731,443.908z M741.539,781.989l-57.317,50.998
	l-15.27-131.663l-12.484,136.696l-73.987-56.031c1.67,2.672,38.023,48.19,57.086,71.969l-97.612,11.761l99.081,12.144
	c-19.811,28.114-59.54,83.065-63.043,87.605c4.007-4.244,54.209-48.172,78.473-70.315c8.198,33.903,16.274,138.624,16.274,142.616
	c0,4.101,6.517-118.094,11.479-151.637c30.606,18.508,83.664,62.212,83.664,61.257c0-0.927-44.638-50.662-69.715-74.037
	l139.262-2.564l-143.33-20.433L741.539,781.989z"/>
</svg>
